<svg version="1.1" xmlns="http://www.w3.org/2000/svg" xmlns:xlink="http://www.w3.org/1999/xlink" x="0px" y="0px" width="42px" height="45px"
	 viewBox="0 0 292.7 314" xml:space="preserve">
<style type="text/css">
	.st0{fill:#DEC2BE;}
</style>
<g id="Calque_1">
</g>
<g id="Calque_2">
	<path class="st0" d="M281,71c-10-11-54-60-54-60s-10-9-18-7s-10,3-14,7S12,173,12,173s-4,6-5,13s-5,39-5,39s-1,12,7,21s49,54,49,54
		s8,10,13,11s12,5,22-4s183-160,183-160s5-5,6-10s7-49,7-49S291,82,281,71z M166,221l-83,74c0,0-4,3-8,0s-56-62-56-62s-1-2,0-10
		s5-38,5-38s1-3,5-6s75-67,75-67s1-3,6,1s51,57,51,57l-81,73l10,13l80-71L166,221z"/>
</g>
</svg>
